<?xml version="1.0" encoding="UTF-8" standalone="no"?>
<!DOCTYPE svg PUBLIC "-//W3C//DTD SVG 1.1//EN" "http://www.w3.org/Graphics/SVG/1.1/DTD/svg11.dtd">
<svg width="100%" height="100%" viewBox="0 0 100 100" version="1.1" xmlns="http://www.w3.org/2000/svg" xmlns:xlink="http://www.w3.org/1999/xlink" xml:space="preserve" xmlns:serif="http://www.serif.com/" style="fill-rule:evenodd;clip-rule:evenodd;stroke-linejoin:round;stroke-miterlimit:1.41421;">
    <path d="M68.662,97.027C68.668,97.03 68.674,97.031 68.68,97.033C68.743,97.063 68.813,97.083 68.888,97.083L68.893,97.084C68.976,97.084 69.051,97.058 69.121,97.022C69.136,97.014 69.148,97.007 69.162,96.998C69.169,96.994 69.176,96.996 69.182,96.992L97.29,76.998C97.301,76.99 97.307,76.977 97.317,76.969C97.343,76.947 97.366,76.921 97.387,76.894C97.407,76.87 97.424,76.845 97.439,76.819C97.453,76.791 97.462,76.761 97.471,76.73C97.481,76.698 97.489,76.666 97.492,76.631C97.493,76.617 97.5,76.606 97.5,76.591L97.5,38.287C97.5,38.268 97.492,38.254 97.49,38.236C97.487,38.21 97.486,38.184 97.479,38.158C97.475,38.143 97.47,38.131 97.465,38.116C97.455,38.091 97.442,38.069 97.429,38.046C97.419,38.03 97.417,38.012 97.408,37.997C97.404,37.992 97.398,37.989 97.393,37.984C97.385,37.973 97.376,37.963 97.367,37.954C97.348,37.933 97.326,37.918 97.305,37.9C97.284,37.884 97.266,37.866 97.244,37.854C97.238,37.851 97.236,37.846 97.23,37.843L75.666,26.603C75.666,26.603 75.666,26.602 75.665,26.602L43.053,9.388L32.006,3.438C31.985,3.427 31.962,3.426 31.94,3.418C31.904,3.404 31.869,3.391 31.832,3.386C31.803,3.382 31.775,3.387 31.747,3.388C31.712,3.39 31.678,3.389 31.643,3.398C31.606,3.408 31.574,3.426 31.54,3.444C31.52,3.455 31.498,3.458 31.479,3.471L3.37,23.442C3.366,23.445 3.364,23.45 3.359,23.453C3.348,23.462 3.338,23.472 3.327,23.481C3.306,23.501 3.289,23.524 3.271,23.546C3.256,23.566 3.239,23.581 3.228,23.602C3.225,23.608 3.22,23.611 3.217,23.616C3.214,23.623 3.214,23.63 3.211,23.637C3.2,23.66 3.195,23.686 3.188,23.71C3.18,23.736 3.17,23.76 3.167,23.786C3.165,23.801 3.164,23.814 3.163,23.829C3.163,23.837 3.159,23.843 3.159,23.85L3.159,62.11C3.159,62.134 3.17,62.155 3.173,62.178C3.178,62.212 3.182,62.246 3.194,62.28C3.205,62.311 3.222,62.337 3.239,62.364C3.256,62.391 3.27,62.419 3.292,62.442C3.316,62.468 3.344,62.488 3.373,62.508C3.392,62.522 3.405,62.54 3.427,62.552L68.658,97.027C68.658,97.027 68.66,97.026 68.662,97.027ZM31.804,4.466L37.927,7.764L36.637,7.5C36.623,7.497 36.61,7.502 36.595,7.5C36.581,7.498 36.569,7.491 36.555,7.49L33.055,7.359C33.043,7.359 33.033,7.365 33.02,7.366C33.004,7.367 32.989,7.361 32.973,7.363L29.517,7.801C29.5,7.803 29.487,7.813 29.471,7.817C29.456,7.82 29.442,7.817 29.427,7.822L26.3,8.827C26.286,8.832 26.276,8.842 26.263,8.848C26.249,8.854 26.234,8.854 26.221,8.861L23.916,10.071L31.804,4.466ZM45.742,25.704L43.92,27.423L41.39,28.814L38.362,29.767L35.007,30.153L31.581,30.046L28.331,29.408L25.488,28.242L23.25,26.715L21.778,24.916L21.112,23L21.112,19.317L22.52,21.057C22.533,21.073 22.552,21.079 22.566,21.093C22.587,21.114 22.602,21.138 22.627,21.155L24.968,22.753C24.979,22.761 24.992,22.758 25.004,22.764C25.026,22.778 25.044,22.796 25.069,22.806L28.001,23.943C28.015,23.949 28.029,23.947 28.043,23.951C28.056,23.955 28.065,23.964 28.079,23.967L31.426,24.667C31.449,24.672 31.472,24.673 31.495,24.674C31.5,24.675 31.504,24.678 31.51,24.678L35.01,24.81C35.017,24.81 35.023,24.81 35.03,24.81C35.051,24.81 35.073,24.809 35.095,24.805L38.53,24.345C38.539,24.344 38.547,24.338 38.556,24.336C38.573,24.333 38.591,24.333 38.608,24.328L41.736,23.388C41.757,23.382 41.772,23.367 41.791,23.359C41.804,23.353 41.819,23.356 41.833,23.348L44.458,21.905C44.476,21.895 44.486,21.88 44.502,21.868C44.52,21.855 44.542,21.848 44.558,21.833L46.483,20.039C46.514,20.01 46.532,19.974 46.554,19.939C46.562,19.927 46.575,19.922 46.581,19.911L46.954,19.223L46.954,20.878C46.789,21.006 46.712,21.225 46.785,21.433L46.947,21.899L46.769,23.875L45.742,25.704ZM22.306,12.805L24.122,11.091L26.649,9.765L29.688,8.787L33.059,8.361L36.479,8.488L39.72,9.15L42.582,10.273L44.816,11.797L46.287,13.595L46.945,15.55L46.767,17.467L45.74,19.36L43.919,21.057L41.393,22.446L38.355,23.36L35.008,23.808L31.585,23.679L28.321,22.995L25.485,21.895L23.251,20.37L21.778,18.551L21.12,16.614L21.298,14.697L22.306,12.805ZM21.56,12.134C21.54,12.153 21.53,12.178 21.514,12.199C21.497,12.22 21.475,12.237 21.462,12.262L20.368,14.318C20.349,14.352 20.346,14.389 20.336,14.425C20.329,14.452 20.315,14.477 20.312,14.506L20.115,16.628C20.115,16.63 20.116,16.631 20.115,16.633C20.115,16.641 20.116,16.649 20.116,16.656C20.116,16.662 20.113,16.668 20.113,16.674L20.113,23.083C20.113,23.112 20.125,23.139 20.13,23.167C20.135,23.193 20.132,23.221 20.141,23.247L20.863,25.325C20.866,25.334 20.875,25.338 20.879,25.346C20.897,25.392 20.916,25.438 20.948,25.478L22.523,27.403C22.536,27.419 22.554,27.424 22.568,27.438C22.589,27.459 22.603,27.483 22.628,27.5L24.969,29.098C24.979,29.105 24.991,29.102 25.002,29.108C25.023,29.121 25.038,29.138 25.061,29.148L27.993,30.351C28.01,30.358 28.028,30.356 28.045,30.361C28.06,30.366 28.071,30.376 28.087,30.379L31.434,31.035C31.457,31.04 31.48,31.041 31.502,31.042C31.506,31.042 31.51,31.045 31.514,31.045L35.014,31.154C35.019,31.154 35.025,31.154 35.03,31.154C35.049,31.154 35.067,31.153 35.086,31.151L38.521,30.756C38.534,30.754 38.544,30.747 38.557,30.744C38.576,30.74 38.595,30.741 38.614,30.735L41.742,29.751C41.761,29.745 41.775,29.731 41.793,29.724C41.806,29.718 41.82,29.72 41.833,29.713L44.458,28.27C44.477,28.259 44.488,28.243 44.505,28.23C44.523,28.217 44.544,28.21 44.56,28.195L46.485,26.38C46.512,26.355 46.527,26.321 46.547,26.292C46.555,26.279 46.57,26.274 46.577,26.261L47.692,24.27C47.693,24.267 47.693,24.264 47.694,24.261C47.715,24.222 47.726,24.177 47.736,24.131C47.74,24.112 47.75,24.095 47.752,24.075C47.752,24.073 47.753,24.072 47.753,24.07L47.95,21.882C47.95,21.88 47.949,21.878 47.949,21.876C47.95,21.868 47.949,21.86 47.949,21.853C47.949,21.848 47.952,21.843 47.952,21.837L47.952,15.493C47.952,15.467 47.941,15.445 47.937,15.42C47.933,15.393 47.934,15.363 47.925,15.337C47.925,15.336 47.925,15.335 47.925,15.334L47.209,13.209L47.203,13.19C47.193,13.161 47.173,13.138 47.158,13.113C47.143,13.086 47.136,13.057 47.116,13.033L46.585,12.385L70.361,24.935L69.248,24.716C69.234,24.713 69.223,24.717 69.209,24.716C69.195,24.714 69.184,24.707 69.17,24.706L65.67,24.575C65.656,24.574 65.644,24.581 65.63,24.581C65.617,24.582 65.606,24.577 65.592,24.579L62.136,24.994C62.119,24.996 62.107,25.006 62.09,25.009C62.075,25.013 62.061,25.009 62.045,25.014L58.916,25.998C58.9,26.003 58.89,26.015 58.875,26.021C58.857,26.028 58.84,26.028 58.824,26.037L56.22,27.481C56.202,27.491 56.192,27.508 56.175,27.52C56.158,27.532 56.14,27.537 56.124,27.55L54.177,29.343C54.154,29.364 54.142,29.393 54.123,29.417C54.107,29.438 54.087,29.453 54.074,29.477L52.984,31.526C52.984,31.527 52.983,31.527 52.983,31.528L52.98,31.534C52.964,31.563 52.961,31.595 52.953,31.626C52.943,31.656 52.928,31.685 52.925,31.718L52.706,33.84C52.705,33.843 52.706,33.846 52.706,33.849C52.706,33.857 52.707,33.866 52.706,33.873C52.706,33.88 52.703,33.885 52.703,33.891L52.703,40.3C52.703,40.33 52.715,40.356 52.72,40.384C52.725,40.41 52.722,40.436 52.731,40.462L53.445,42.54L53.453,42.561C53.455,42.569 53.463,42.572 53.467,42.579C53.485,42.627 53.504,42.674 53.539,42.716L55.113,44.642C55.127,44.658 55.145,44.664 55.16,44.678C55.18,44.698 55.195,44.722 55.219,44.739L57.561,46.336C57.571,46.343 57.584,46.341 57.596,46.347C57.617,46.36 57.633,46.377 57.657,46.387L60.61,47.568C60.626,47.574 60.641,47.573 60.658,47.578C60.673,47.582 60.684,47.592 60.699,47.595L64.024,48.251C64.045,48.256 64.067,48.256 64.088,48.258C64.093,48.258 64.097,48.261 64.102,48.261L67.623,48.393C67.629,48.393 67.636,48.393 67.643,48.393C67.664,48.393 67.686,48.392 67.708,48.388L71.143,47.928C71.153,47.927 71.16,47.921 71.168,47.919C71.186,47.916 71.203,47.916 71.221,47.911L74.348,46.971C74.369,46.965 74.384,46.95 74.404,46.942C74.417,46.936 74.432,46.938 74.446,46.931L77.071,45.488C77.089,45.478 77.098,45.462 77.114,45.451C77.133,45.438 77.154,45.431 77.171,45.416L79.096,43.622C79.129,43.591 79.149,43.553 79.172,43.517C79.179,43.506 79.191,43.501 79.196,43.491L80.29,41.434L80.29,41.43C80.319,41.375 80.339,41.314 80.347,41.248L80.566,39.127C80.566,39.117 80.562,39.109 80.563,39.101C80.563,39.092 80.568,39.084 80.568,39.076L80.568,32.666C80.568,32.64 80.557,32.617 80.553,32.593C80.548,32.566 80.55,32.536 80.54,32.51C80.54,32.508 80.54,32.505 80.54,32.502L79.817,30.424C79.807,30.396 79.788,30.376 79.774,30.351C79.76,30.326 79.753,30.297 79.734,30.274L79.144,29.545L96.043,38.354L68.851,57.674L4.611,23.786L23.231,10.557L21.56,12.134ZM78.354,42.943L76.535,44.638L74.01,46.027L70.971,46.941L67.624,47.389L64.176,47.259L60.939,46.62L58.083,45.477L55.845,43.952L54.372,42.15L53.707,40.215L53.707,36.506L55.117,38.23C55.13,38.246 55.148,38.251 55.162,38.265C55.183,38.286 55.197,38.31 55.222,38.327L57.564,39.925C57.574,39.932 57.587,39.929 57.597,39.936C57.618,39.948 57.634,39.965 57.657,39.975L60.61,41.178C60.627,41.185 60.642,41.183 60.659,41.188C60.675,41.192 60.686,41.203 60.702,41.206L64.027,41.862C64.05,41.867 64.073,41.868 64.096,41.869C64.1,41.869 64.103,41.872 64.108,41.872L67.629,41.981C67.634,41.981 67.64,41.981 67.646,41.981C67.665,41.981 67.683,41.98 67.703,41.978L71.137,41.583C71.151,41.581 71.16,41.574 71.173,41.571C71.192,41.567 71.211,41.568 71.231,41.562L74.358,40.578C74.378,40.572 74.391,40.558 74.409,40.551C74.423,40.545 74.436,40.547 74.45,40.54L77.075,39.097C77.093,39.087 77.102,39.072 77.118,39.06C77.137,39.047 77.158,39.04 77.175,39.025L79.1,37.231C79.131,37.202 79.15,37.166 79.171,37.13C79.179,37.119 79.192,37.114 79.198,37.103L79.571,36.416L79.571,39.046L79.364,41.048L78.354,42.943ZM54.919,30.023L56.761,28.327L59.27,26.934L62.303,25.98L65.67,25.576L69.101,25.705L72.355,26.343L75.196,27.489L77.43,29.013L78.904,30.834L79.56,32.725L79.363,34.704L78.356,36.555L76.536,38.252L74.007,39.643L70.979,40.596L67.624,40.982L64.178,40.875L60.944,40.237L58.085,39.072L55.847,37.544L54.374,35.745L53.718,33.836L53.915,31.918L54.919,30.023ZM69.391,58.517L96.5,39.255L96.5,76.333L69.391,95.615L69.391,58.517ZM4.159,24.679L68.39,58.561L68.39,95.754L4.159,61.808L4.159,24.679Z" style="fill:white;fill-rule:nonzero;"/>
</svg>
